<?xml version="1.0" standalone="no"?><!DOCTYPE svg PUBLIC "-//W3C//DTD SVG 1.1//EN" "http://www.w3.org/Graphics/SVG/1.1/DTD/svg11.dtd"><svg xmlns="http://www.w3.org/2000/svg" width="1200" height="400" viewBox="0 0 1200 400"><g class="sankey" transform="translate(230,0)"><g class="groups"/><g class="links"><g class="link" style="opacity: 0.8;"><path d="M277.3333333333333,39.000000018180465 A0 0 0 0 0 277.3333333333333,39.000000018180465 L414.5,39.000000018180465 A0 0 0 0 0 414.5,39.000000018180465 L414.5,41.000000018180465 A0 0 0 0 0 414.5,41.000000018180465 L277.3333333333333,41.000000018180465 A0 0 0 0 0 277.3333333333333,41.000000018180465 Z" style="fill: rgb(207, 207, 207);"/><title>Wburn ≥ 0.1·D → aircraft performance
-2.1e-09
2.13n</title><text class="label" dy="0.35em" x="281.3333333333333" y="40.000000018180465"/></g><g class="link" style="opacity: 0.8;"><path d="M1,105.97287465796656 A80.68731491467437 80.68731491467437 0.32372876611147694 0 0 26.666944911849146,101.78164282623138 L111.86351406990467,73.19539946410474 A82.68731491467437 82.68731491467437 0.32372876611147694 0 1 138.16666666666666,68.9002793858424 L138.16666666666666,70.9002793858424 A80.68731491467437 80.68731491467437 0.32372876611147694 0 0 112.49972175481751,75.09151121757758 L27.303152596761986,103.67775457970421 A82.68731491467437 82.68731491467437 0.32372876611147694 0 1 1,107.97287465796656 Z" style="fill: rgb(89, 173, 228);"/><title>Re = rho·V·c/mu → WingAero
-0.061
61.3m</title><text class="label" dy="0.35em" x="5" y="106.97287465796656"/></g><g class="link" style="opacity: 0.8;"><path d="M1,332.580794272356 A156.03329589312108 156.03329589312108 0.16460920982815863 0 1 26.568682486756906,334.6899793083353 L112.92571785162903,349.03494193599886 A154.03329589312108 154.03329589312108 0.16460920982815863 0 0 138.16666666666666,351.11709190841805 L138.16666666666666,353.11709190841805 A156.03329589312108 156.03329589312108 0.16460920982815863 0 1 112.59798417990976,351.00790687243875 L26.240948815037626,336.6629442447752 A154.03329589312108 154.03329589312108 0.16460920982815863 0 0 1,334.580794272356 Z" style="fill: rgb(89, 173, 228);"/><title>c = (S/A)^0.5 → Wing
-0.061
61.3m</title><text class="label" dy="0.35em" x="5" y="333.580794272356"/></g><g class="link" style="opacity: 0.8;"><path d="M1,219.12300188413678 A59.62638796374307 59.62638796374307 0.44731229012473506 0 0 26.79102594510945,213.25653507269354 L110.50428038840109,173.09556252997024 A63.9527942680989 63.9527942680989 0.44731229012473506 0 1 138.16666666666666,166.80343319117827 L138.16666666666666,171.1298394955341 A59.62638796374307 59.62638796374307 0.44731229012473506 0 0 112.37564072155722,176.99630630697735 L28.66238627826557,217.15727884970065 A63.9527942680989 63.9527942680989 0.44731229012473506 0 1 1,223.4494081884926 Z" style="fill: rgb(89, 173, 228);"/><title>Wfuel[3] ≥ Wburn[3] → fuel constraints
-0.25
253m</title><text class="label" dy="0.35em" x="5" y="221.2862050363147"/></g><g class="link" style="opacity: 0.8;"><path d="M1,307.161588544712 A85.36701964275646 85.36701964275646 0.3237287661114765 0 1 28.1555769674135,311.59590353567984 L113.35214612546908,340.18214689780643 A78.00761018659232 78.00761018659232 0.3237287661114765 0 0 138.16666666666666,344.23418381683615 L138.16666666666666,351.5935932730003 A85.36701964275646 85.36701964275646 0.3237287661114765 0 1 111.01108969925316,347.15927828203246 L25.81452054119757,318.57303491990587 A78.00761018659232 78.00761018659232 0.3237287661114765 0 0 1,314.52099800087615 Z" style="fill: rgb(89, 173, 228);"/><title>rho = 1 lbf/ft² → Wing
-0.43
431m</title><text class="label" dy="0.35em" x="5" y="310.8412932727941"/></g><g class="link" style="opacity: 0.8;"><path d="M1,352.64059054383586 A0 0 0 0 0 1,352.64059054383586 L138.16666666666666,352.64059054383586 A0 0 0 0 0 138.16666666666666,352.64059054383586 L138.16666666666666,360 A0 0 0 0 0 138.16666666666666,360 L1,360 A0 0 0 0 0 1,360 Z" style="fill: rgb(89, 173, 228);"/><title>W ≥ S·rho → Wing
-0.43
431m</title><text class="label" dy="0.35em" x="5" y="356.3202952719179"/></g><g class="link" style="opacity: 0.8;"><path d="M1,277.07789234623067 A64.86598363334137 64.86598363334137 0.47291291124563406 0 1 30.54525031028692,284.19723956823293 L113.88104184649504,326.8348194127914 A53.31858507092214 53.31858507092214 0.47291291124563406 0 0 138.16666666666666,332.6867852544169 L138.16666666666666,344.2341838168362 A64.86598363334137 64.86598363334137 0.47291291124563406 0 1 108.62141635637974,337.11483659483395 L25.28562482017163,294.4772567502755 A53.31858507092214 53.31858507092214 0.47291291124563406 0 0 1,288.62529090864996 Z" style="fill: rgb(89, 173, 228);"/><title>A = 27  → Wing
-0.68
676m</title><text class="label" dy="0.35em" x="5" y="282.8515916274403"/></g><g class="link" style="opacity: 0.8;"><path d="M1,40 A0 0 0 0 0 1,40 L138.16666666666666,40 A0 0 0 0 0 138.16666666666666,40 L138.16666666666666,52.07089719783701 A0 0 0 0 0 138.16666666666666,52.07089719783701 L1,52.07089719783701 A0 0 0 0 0 1,52.07089719783701 Z" style="fill: rgb(89, 173, 228);"/><title>e = 0.9  → WingAero
-0.71
707m</title><text class="label" dy="0.35em" x="5" y="46.03544859891851"/></g><g class="link" style="opacity: 0.8;"><path d="M1,241.98570582455469 A96.8839462749226 96.8839462749226 0.2961098617098281 0 1 29.27088946208314,246.20220444484093 L114.7268118870846,272.2730092193663 A80.32805738930865 80.32805738930865 0.2961098617098281 0 0 138.16666666666666,275.7689768814511 L138.16666666666666,292.3248657670651 A96.8839462749226 96.8839462749226 0.2961098617098281 0 1 109.89577720458352,288.1083671467788 L24.439854779582063,262.03756237225343 A80.32805738930865 80.32805738930865 0.2961098617098281 0 0 1,258.5415947101686 Z" style="fill: rgb(89, 173, 228);"/><title>W = 100 lbf → Fuselage
-0.97
969m</title><text class="label" dy="0.35em" x="5" y="250.26365026736164"/></g><g class="link" style="opacity: 0.8;"><path d="M139.16666666666666,275.7689768814511 A84.25467913039172 84.25467913039172 0.3510304426779136 0 1 168.1389520349657,280.9069217775286 L253.05404854696675,312.00254815836735 A67.69879024477778 67.69879024477778 0.3510304426779136 0 0 276.3333333333333,316.13089636880295 L276.3333333333333,332.6867852544169 A84.25467913039172 84.25467913039172 0.3510304426779136 0 1 247.36104796503426,327.5488403583394 L162.44595145303322,296.4532139775007 A67.69879024477778 67.69879024477778 0.3510304426779136 0 0 139.16666666666666,292.3248657670651 Z" style="fill: rgb(89, 173, 228);"/><title>Fuselage → Aircraft
-0.97
969m</title><text class="label" dy="0.35em" x="143.16666666666666" y="284.0469213242581"/></g><g class="link" style="opacity: 0.8;"><path d="M691.8333333333333,214.90971441004854 A0 0 0 0 0 691.8333333333333,214.90971441004854 L829,214.90971441004854 A0 0 0 0 0 829,214.90971441004854 L829,232.2155979575897 A0 0 0 0 0 829,232.2155979575897 L691.8333333333333,232.2155979575897 A0 0 0 0 0 691.8333333333333,232.2155979575897 Z" style="fill: rgb(89, 173, 228);"/><title>Wburn ≥ 0.2·D → Model
-1
1.01</title><text class="label" dy="0.35em" x="695.8333333333333" y="223.56265618381912"/></g><g class="link" style="opacity: 0.8;"><path d="M1,70.60719483389909 A146.380354116827 146.380354116827 0.1646092098281593 0 0 24.986885461138346,68.62849374515173 L111.34392082601036,54.2835311174881 A163.6862376694146 163.6862376694146 0.1646092098281593 0 1 138.16666666666666,52.070897197837006 L138.16666666666666,69.37678075042463 A146.380354116827 146.380354116827 0.1646092098281593 0 0 114.17978120552831,71.355481839172 L27.8227458406563,85.70044446683562 A163.6862376694146 163.6862376694146 0.1646092098281593 0 1 1,87.91307838648672 Z" style="fill: rgb(89, 173, 228);"/><title>D ≥ 0.5·rho·V²·CD·S → WingAero
-1
1.01</title><text class="label" dy="0.35em" x="5" y="79.2601366101929"/></g><g class="link" style="opacity: 0.8;"><path d="M1,126.03267092944641 A50.43934257583796 50.43934257583796 0.47291291124563384 0 0 23.97418336108378,120.4967155128645 L107.3099748972919,77.85913566830607 A67.7452261284256 67.7452261284256 0.47291291124563384 0 1 138.16666666666666,70.42377802126018 L138.16666666666666,87.7296615738478 A50.43934257583796 50.43934257583796 0.47291291124563384 0 0 115.19248330558288,93.26561699042972 L31.85669176937477,135.90319683498814 A67.7452261284256 67.7452261284256 0.47291291124563384 0 1 1,143.33855448203406 Z" style="fill: rgb(89, 173, 228);"/><title>CD ≥ 0.074/Re^0.2 + CL²/π/A/e → WingAero
-1
1.01</title><text class="label" dy="0.35em" x="5" y="134.68561270574023"/></g><g class="link" style="opacity: 0.8;"><path d="M139.16666666666666,211.49175898288598 A59.027448434053156 59.027448434053156 0.6544426846186849 0 1 175.09768808532598,223.6875795523576 L254.95996470576432,284.9609817943086 A35.112150022839884 35.112150022839884 0.6544426846186849 0 0 276.3333333333333,292.2155979575897 L276.3333333333333,316.13089636880295 A59.027448434053156 59.027448434053156 0.6544426846186849 0 1 240.402311914674,303.93507579933134 L160.54003529423565,242.66167355738037 A35.112150022839884 35.112150022839884 0.6544426846186849 0 0 139.16666666666666,235.40705739409924 Z" style="fill: rgb(89, 173, 228);"/><title>W ≥ W + W → Aircraft
-1.4
1.40</title><text class="label" dy="0.35em" x="143.16666666666666" y="223.4494081884926"/></g><g class="link" style="opacity: 0.8;"><path d="M277.3333333333333,74.32647092324622 A75.29462801444049 75.29462801444049 0.3006918359327049 0 0 299.63417697420334,70.94813717330766 L385.0488138240434,44.461532426625084 A99.43642237994587 99.43642237994587 0.3006918359327049 0 1 414.5,40.00000003636093 L414.5,64.14179440186632 A75.29462801444049 75.29462801444049 0.3006918359327049 0 0 392.19915635913,67.52012815180488 L306.7845195092899,94.00673289848746 A99.43642237994587 99.43642237994587 0.3006918359327049 0 1 277.3333333333333,98.4682652887516 Z" style="fill: rgb(89, 173, 228);"/><title>W + Wfuel ≤ 0.5·rho·CL·S·V² → aircraft performance
-1.4
1.41</title><text class="label" dy="0.35em" x="281.3333333333333" y="86.39736810599891"/></g><g class="link" style="opacity: 0.8;"><path d="M139.16666666666666,332.6867852544169 A0 0 0 0 0 139.16666666666666,332.6867852544169 L276.3333333333333,332.68678525441686 A0 0 0 0 1 276.3333333333333,332.68678525441686 L276.3333333333333,359.99999999999994 A0 0 0 0 0 276.3333333333333,359.99999999999994 L139.16666666666666,360 A0 0 0 0 1 139.16666666666666,360 Z" style="fill: rgb(89, 173, 228);"/><title>Wing → Aircraft
-1.6
1.60</title><text class="label" dy="0.35em" x="143.16666666666666" y="346.34339262720846"/></g><g class="link" style="opacity: 0.8;"><path d="M1,161.8748521180961 A69.25007576712632 69.25007576712632 0.2961098617098281 0 0 21.207282140406132,158.86101071140698 L106.6632045654076,132.79020593688162 A107.96192789710493 107.96192789710493 0.2961098617098281 0 1 138.16666666666666,128.09158106119963 L138.16666666666666,166.80343319117827 A69.25007576712632 69.25007576712632 0.2961098617098281 0 0 117.95938452626052,169.8172745978674 L32.50346210125907,195.88807937239275 A107.96192789710493 107.96192789710493 0.2961098617098281 0 1 1,200.58670424807474 Z" style="fill: rgb(89, 173, 228);"/><title>Wfuel[:-1] ≥ Wfuel[1:] + Wburn ... → fuel constraints
-2.3
2.27</title><text class="label" dy="0.35em" x="5" y="181.23077818308542"/></g><g class="link" style="opacity: 0.8;"><path d="M139.16666666666666,128.09158106119963 A67.06215261193458 67.06215261193458 0.691152180168097 0 1 181.91378436859128,143.4815337865007 L261.5198936050998,209.33767555695331 A24.02389417760015 24.02389417760015 0.691152180168097 0 0 276.8333333333333,214.85086863636997 L276.8333333333333,257.88912707070443 A67.06215261193458 67.06215261193458 0.691152180168097 0 1 234.0862156314087,242.49917434540336 L154.48010639490013,176.64303257495075 A24.02389417760015 24.02389417760015 0.691152180168097 0 0 139.16666666666666,171.1298394955341 ZM276.8333333333333,214.85086863636997 A65.84639598002603 65.84639598002603 0.29742517792595113 0 0 296.13023917747114,211.95983214543642 L383.09032760513173,185.3050619685271 A108.88465441436047 108.88465441436047 0.29742517792595113 0 1 415,180.5243977494847 L415,223.56265618381917 A65.84639598002603 65.84639598002603 0.29742517792595113 0 0 395.7030941558621,226.45369267475272 L308.74300572820164,253.10846285166204 A108.88465441436047 108.88465441436047 0.29742517792595113 0 1 276.8333333333333,257.88912707070443 ZM415,180.5243977494847 A0 0 0 0 0 415,180.5243977494847 L553.1666666666666,180.5243977494847 A0 0 0 0 0 553.1666666666666,180.5243977494847 L553.1666666666666,223.56265618381917 A0 0 0 0 0 553.1666666666666,223.56265618381917 L415,223.56265618381917 A0 0 0 0 0 415,223.56265618381917 ZM553.1666666666666,180.5243977494847 A29.887089330978526 29.887089330978526 0.567583619816797 0 0 569.2338500024644,175.83817602920078 L651.6289491460249,123.30597021938945 A72.92534776531296 72.92534776531296 0.567583619816797 0 1 690.8333333333333,111.87145597571414 L690.8333333333333,154.9097144100486 A29.887089330978526 29.887089330978526 0.567583619816797 0 0 674.7661499975355,159.59593613033252 L592.371050853975,212.12814194014385 A72.92534776531296 72.92534776531296 0.567583619816797 0 1 553.1666666666666,223.56265618381917 Z" style="fill: rgb(89, 173, 228);"/><title>fuel constraints → Mission
-2.5
2.52</title><text class="label" dy="0.35em" x="143.16666666666666" y="149.61071027836687"/></g><g class="link" style="opacity: 0.8;"><path d="M139.16666666666666,40 A68.19744916051495 68.19744916051495 0.7325764569648348 0 1 184.77625655415846,57.49579847440982 L262.64473633705916,127.54380243483814 A20.467787586667146 20.467787586667146 0.7325764569648348 0 0 276.3333333333333,132.7947361756369 L276.3333333333333,180.5243977494847 A68.19744916051495 68.19744916051495 0.7325764569648348 0 1 230.72374344584154,163.0285992750749 L152.85526366294079,92.98059531464656 A20.467787586667146 20.467787586667146 0.7325764569648348 0 0 139.16666666666666,87.7296615738478 Z" style="fill: rgb(89, 173, 228);"/><title>WingAero → performance
-2.8
2.79</title><text class="label" dy="0.35em" x="143.16666666666666" y="63.8648307869239"/></g><g class="link" style="opacity: 0.8;"><path d="M277.3333333333333,132.7947361756369 A27.54138776122188 27.54138776122188 0.570350361819548 0 0 292.2036718055166,128.4352610520014 L373.8591292322288,76.05630902077738 A75.27104933506968 75.27104933506968 0.570350361819548 0 1 414.5,64.14179440186632 L414.5,111.87145597571413 A27.54138776122188 27.54138776122188 0.570350361819548 0 0 399.6296615278167,116.23093109934962 L317.97420410110453,168.60988313057368 A75.27104933506968 75.27104933506968 0.570350361819548 0 1 277.3333333333333,180.5243977494847 Z" style="fill: rgb(89, 173, 228);"/><title>performance → aircraft performance
-2.8
2.79</title><text class="label" dy="0.35em" x="281.3333333333333" y="156.6595669625608"/></g><g class="link" style="opacity: 0.8;"><path d="M277.3333333333333,292.2155979575897 A0 0 0 0 0 277.3333333333333,292.2155979575897 L415,292.2155979575897 A0 0 0 0 0 415,292.2155979575897 L415,360 A0 0 0 0 0 415,360 L277.3333333333333,360 A0 0 0 0 0 277.3333333333333,360 ZM415,292.2155979575897 A0 0 0 0 0 415,292.2155979575897 L553.1666666666666,292.2155979575897 A0 0 0 0 0 553.1666666666666,292.2155979575897 L553.1666666666666,360 A0 0 0 0 0 553.1666666666666,360 L415,360 A0 0 0 0 0 415,360 ZM553.1666666666666,292.2155979575897 A0 0 0 0 0 553.1666666666666,292.2155979575897 L691.3333333333333,292.2155979575897 A0 0 0 0 0 691.3333333333333,292.2155979575897 L691.3333333333333,360 A0 0 0 0 0 691.3333333333333,360 L553.1666666666666,360 A0 0 0 0 0 553.1666666666666,360 ZM691.3333333333333,292.2155979575897 A22.14453508990602 22.14453508990602 0.5039086621288886 0 0 702.0258673063306,289.46307543947154 L785.5776291288619,243.39358943413987 A89.92893713231629 89.92893713231629 0.5039086621288886 0 1 829,232.2155979575897 L829,300 A22.14453508990602 22.14453508990602 0.5039086621288886 0 0 818.3074660270026,302.75252251811816 L734.7557042044714,348.8220085234498 A89.92893713231629 89.92893713231629 0.5039086621288886 0 1 691.3333333333333,360 Z" style="fill: rgb(89, 173, 228);"/><title>Aircraft → Model
-4
3.97</title><text class="label" dy="0.35em" x="281.3333333333333" y="326.10779897879485"/></g><g class="link" style="opacity: 0.8;"><path d="M415.5,40 A0 0 0 0 0 415.5,40 L552.6666666666666,40 A0 0 0 0 0 552.6666666666666,40 L552.6666666666666,111.87145597571413 A0 0 0 0 0 552.6666666666666,111.87145597571413 L415.5,111.87145597571413 A0 0 0 0 0 415.5,111.87145597571413 Z" style="fill: rgb(89, 173, 228);"/><title>aircraft performance → flight segment
-4.2
4.21</title><text class="label" dy="0.35em" x="419.5" y="75.93572798785706"/></g><g class="link" style="opacity: 0.8;"><path d="M553.6666666666666,40 A0 0 0 0 0 553.6666666666666,40 L690.8333333333333,40 A0 0 0 0 0 690.8333333333333,40 L690.8333333333333,111.87145597571413 A0 0 0 0 0 690.8333333333333,111.87145597571413 L553.6666666666666,111.87145597571413 A0 0 0 0 0 553.6666666666666,111.87145597571413 Z" style="fill: rgb(89, 173, 228);"/><title>flight segment → Mission
-4.2
4.21</title><text class="label" dy="0.35em" x="557.6666666666666" y="75.93572798785706"/></g><g class="link" style="opacity: 0.8;"><path d="M691.8333333333333,39.99999999999999 A114.90971441004855 114.90971441004855 0.5102790086504962 0 1 747.9576200612412,54.63854754198774 L829,100 A0 0 0.5102790086504962 0 0 829,100 L829,214.90971441004854 A114.90971441004855 114.90971441004855 0.5102790086504962 0 1 772.8757132720921,200.2711668680608 L691.8333333333333,154.90971441004854 A0 0 0.5102790086504962 0 0 691.8333333333333,154.90971441004854 Z" style="fill: rgb(89, 173, 228);"/><title>Mission → Model
-6.7
6.73</title><text class="label" dy="0.35em" x="695.8333333333333" y="97.45485720502427"/></g></g><g class="nodes"><g class="node" transform="translate(0,161.8748521180961)"><title>Wfuel[:-1] ≥ Wfuel[1:] + Wburn ...</title><line x1="0" x2="0" y1="0" y2="38.71185212997861" style="display: inline; stroke: rgb(0, 0, 0);"/><rect class="node-body" width="1" height="38.71185212997861" style="fill: none;"/><text class="node-value" dy=".35em" text-anchor="middle" transform="translate(0.5,19.355926064989305) rotate(-90)" style="display: none;"/><text class="node-title" dy=".35em" text-anchor="end" transform="translate(-4,19.355926064989305)" style="display: inline;">Wfuel[:-1] ≥ Wfuel[1:] + Wburn ...</text><rect class="node-click-target" x="-5" y="-5" width="10" height="43.71185212997861" style="fill: none; visibility: hidden; pointer-events: all;"/></g><g class="node" transform="translate(138.16666666666666,128.09158106119966)"><title>fuel constraints</title><line x1="0" x2="0" y1="-5" y2="43.03825843433444" style="display: inline; stroke: rgb(0, 0, 0);"/><rect class="node-body" width="1" height="43.03825843433444" style="fill: none;"/><text class="node-value" dy=".35em" text-anchor="middle" transform="translate(0.5,21.51912921716722) rotate(-90)" style="display: none;"/><text class="node-title" dy=".35em" text-anchor="start" transform="translate(-4,-10)" style="display: inline;">fuel constraints</text><rect class="node-click-target" x="-5" y="-5" width="10" height="48.03825843433444" style="fill: none; visibility: hidden; pointer-events: all;"/></g><g class="node" transform="translate(0,219.12300188413678)"><title>Wfuel[3] ≥ Wburn[3]</title><line x1="0" x2="0" y1="0" y2="4.326406304355828" style="display: inline; stroke: rgb(0, 0, 0);"/><rect class="node-body" width="1" height="4.326406304355828" style="fill: none;"/><text class="node-value" dy=".35em" text-anchor="middle" transform="translate(0.5,2.163203152177914) rotate(-90)" style="display: none;"/><text class="node-title" dy=".35em" text-anchor="end" transform="translate(-4,2.163203152177914)" style="display: inline;">Wfuel[3] ≥ Wburn[3]</text><rect class="node-click-target" x="-5" y="-5" width="10" height="9.326406304355828" style="fill: none; visibility: hidden; pointer-events: all;"/></g><g class="node" transform="translate(690.8333333333333,40)"><title>Mission</title><line x1="0" x2="0" y1="-5" y2="114.90971441004854" style="display: inline; stroke: rgb(0, 0, 0);"/><rect class="node-body" width="1" height="114.90971441004854" style="fill: none;"/><text class="node-value" dy=".35em" text-anchor="middle" transform="translate(0.5,57.45485720502427) rotate(-90)" style="display: none;"/><text class="node-title" dy=".35em" text-anchor="start" transform="translate(-4,-10)" style="display: inline;">Mission</text><rect class="node-click-target" x="-5" y="-5" width="10" height="119.90971441004854" style="fill: none; visibility: hidden; pointer-events: all;"/></g><g class="node" transform="translate(276.3333333333333,40)"><title>Wburn ≥ 0.1·D</title><line x1="0" x2="0" y1="0" y2="1" style="display: inline; stroke: rgb(0, 0, 0);"/><rect class="node-body" width="1" height="1" style="fill: none;"/><text class="node-value" dy=".35em" text-anchor="middle" transform="translate(0.5,1.8180465133355028e-8) rotate(0)" style="display: none;"/><text class="node-title" dy=".35em" text-anchor="end" transform="translate(-4,1.8180465133355028e-8)" style="display: inline;">Wburn ≥ 0.1·D</text><rect class="node-click-target" x="-5" y="-5" width="10" height="6" style="fill: none; visibility: hidden; pointer-events: all;"/></g><g class="node" transform="translate(414.5,40)"><title>aircraft performance</title><line x1="0" x2="0" y1="-5" y2="71.87145597571413" style="display: inline; stroke: rgb(0, 0, 0);"/><rect class="node-body" width="1" height="71.87145597571413" style="fill: none;"/><text class="node-value" dy=".35em" text-anchor="middle" transform="translate(0.5,35.935727987857064) rotate(-90)" style="display: none;"/><text class="node-title" dy=".35em" text-anchor="start" transform="translate(-4,-10)" style="display: inline;">aircraft performance</text><rect class="node-click-target" x="-5" y="-5" width="10" height="76.87145597571413" style="fill: none; visibility: hidden; pointer-events: all;"/></g><g class="node" transform="translate(276.3333333333333,74.32647092324622)"><title>W + Wfuel ≤ 0.5·rho·CL·S·V²</title><line x1="0" x2="0" y1="0" y2="24.14179436550539" style="display: inline; stroke: rgb(0, 0, 0);"/><rect class="node-body" width="1" height="24.14179436550539" style="fill: none;"/><text class="node-value" dy=".35em" text-anchor="middle" transform="translate(0.5,12.070897182752695) rotate(-90)" style="display: none;"/><text class="node-title" dy=".35em" text-anchor="end" transform="translate(-4,12.070897182752695)" style="display: inline;">W + Wfuel ≤ 0.5·rho·CL·S·V²</text><rect class="node-click-target" x="-5" y="-5" width="10" height="29.14179436550539" style="fill: none; visibility: hidden; pointer-events: all;"/></g><g class="node" transform="translate(0,40)"><title>e = 0.9 </title><line x1="0" x2="0" y1="0" y2="12.070897197837006" style="display: inline; stroke: rgb(0, 0, 0);"/><rect class="node-body" width="1" height="12.070897197837006" style="fill: none;"/><text class="node-value" dy=".35em" text-anchor="middle" transform="translate(0.5,6.035448598918503) rotate(-90)" style="display: none;"/><text class="node-title" dy=".35em" text-anchor="end" transform="translate(-4,6.035448598918503)" style="display: inline;">e = 0.9 </text><rect class="node-click-target" x="-5" y="-5" width="10" height="17.070897197837006" style="fill: none; visibility: hidden; pointer-events: all;"/></g><g class="node" transform="translate(138.16666666666666,40)"><title>WingAero</title><line x1="0" x2="0" y1="-5" y2="47.72966157384781" style="display: inline; stroke: rgb(0, 0, 0);"/><rect class="node-body" width="1" height="47.72966157384781" style="fill: none;"/><text class="node-value" dy=".35em" text-anchor="middle" transform="translate(0.5,23.864830786923903) rotate(-90)" style="display: none;"/><text class="node-title" dy=".35em" text-anchor="start" transform="translate(-4,-10)" style="display: inline;">WingAero</text><rect class="node-click-target" x="-5" y="-5" width="10" height="52.72966157384781" style="fill: none; visibility: hidden; pointer-events: all;"/></g><g class="node" transform="translate(0,70.60719483389909)"><title>D ≥ 0.5·rho·V²·CD·S</title><line x1="0" x2="0" y1="0" y2="17.30588355258763" style="display: inline; stroke: rgb(0, 0, 0);"/><rect class="node-body" width="1" height="17.30588355258763" style="fill: none;"/><text class="node-value" dy=".35em" text-anchor="middle" transform="translate(0.5,8.652941776293815) rotate(-90)" style="display: none;"/><text class="node-title" dy=".35em" text-anchor="end" transform="translate(-4,8.652941776293815)" style="display: inline;">D ≥ 0.5·rho·V²·CD·S</text><rect class="node-click-target" x="-5" y="-5" width="10" height="22.30588355258763" style="fill: none; visibility: hidden; pointer-events: all;"/></g><g class="node" transform="translate(0,106.44937602254879)"><title>Re = rho·V·c/mu</title><line x1="0" x2="0" y1="0" y2="1.0469972708355328" style="display: inline; stroke: rgb(0, 0, 0);"/><rect class="node-body" width="1" height="1.0469972708355328" style="fill: none;"/><text class="node-value" dy=".35em" text-anchor="middle" transform="translate(0.5,0.5234986354177664) rotate(-90)" style="display: none;"/><text class="node-title" dy=".35em" text-anchor="end" transform="translate(-4,0.5234986354177664)" style="display: inline;">Re = rho·V·c/mu</text><rect class="node-click-target" x="-5" y="-5" width="10" height="6.046997270835533" style="fill: none; visibility: hidden; pointer-events: all;"/></g><g class="node" transform="translate(0,126.03267092944641)"><title>CD ≥ 0.074/Re^0.2 + CL²/π/A/e</title><line x1="0" x2="0" y1="0" y2="17.305883552587645" style="display: inline; stroke: rgb(0, 0, 0);"/><rect class="node-body" width="1" height="17.305883552587645" style="fill: none;"/><text class="node-value" dy=".35em" text-anchor="middle" transform="translate(0.5,8.652941776293822) rotate(-90)" style="display: none;"/><text class="node-title" dy=".35em" text-anchor="end" transform="translate(-4,8.652941776293822)" style="display: inline;">CD ≥ 0.074/Re^0.2 + CL²/π/A/e</text><rect class="node-click-target" x="-5" y="-5" width="10" height="22.305883552587645" style="fill: none; visibility: hidden; pointer-events: all;"/></g><g class="node" transform="translate(276.3333333333333,132.7947361756369)"><title>performance</title><line x1="0" x2="0" y1="-5" y2="47.72966157384781" style="display: inline; stroke: rgb(0, 0, 0);"/><rect class="node-body" width="1" height="47.72966157384781" style="fill: none;"/><text class="node-value" dy=".35em" text-anchor="middle" transform="translate(0.5,23.864830786923903) rotate(-90)" style="display: none;"/><text class="node-title" dy=".35em" text-anchor="start" transform="translate(-4,-10)" style="display: inline;">performance</text><rect class="node-click-target" x="-5" y="-5" width="10" height="52.72966157384781" style="fill: none; visibility: hidden; pointer-events: all;"/></g><g class="node" transform="translate(552.6666666666666,40)"><title>flight segment</title><line x1="0" x2="0" y1="-5" y2="71.87145597571413" style="display: inline; stroke: rgb(0, 0, 0);"/><rect class="node-body" width="1" height="71.87145597571413" style="fill: none;"/><text class="node-value" dy=".35em" text-anchor="middle" transform="translate(0.5,35.935727987857064) rotate(-90)" style="display: none;"/><text class="node-title" dy=".35em" text-anchor="start" transform="translate(-4,-10)" style="display: inline;">flight segment</text><rect class="node-click-target" x="-5" y="-5" width="10" height="76.87145597571413" style="fill: none; visibility: hidden; pointer-events: all;"/></g><g class="node" transform="translate(829,99.99999999999999)"><title>Model</title><line x1="0" x2="0" y1="0" y2="200" style="display: inline; stroke: rgb(0, 0, 0);"/><rect class="node-body" width="1" height="200" style="fill: none;"/><text class="node-value" dy=".35em" text-anchor="middle" transform="translate(0.5,100) rotate(-90)" style="display: none;"/><text class="node-title" dy=".35em" text-anchor="start" transform="translate(5,100)" style="display: inline;">Model</text><rect class="node-click-target" x="-5" y="-5" width="10" height="205" style="fill: none; visibility: hidden; pointer-events: all;"/></g><g class="node" transform="translate(138.16666666666666,211.49175898288598)"><title>W ≥ W + W</title><line x1="0" x2="0" y1="0" y2="23.915298411213286" style="display: inline; stroke: rgb(0, 0, 0);"/><rect class="node-body" width="1" height="23.915298411213286" style="fill: none;"/><text class="node-value" dy=".35em" text-anchor="middle" transform="translate(0.5,11.957649205606643) rotate(-90)" style="display: none;"/><text class="node-title" dy=".35em" text-anchor="end" transform="translate(-4,11.957649205606643)" style="display: inline;">W ≥ W + W</text><rect class="node-click-target" x="-5" y="-5" width="10" height="28.915298411213286" style="fill: none; visibility: hidden; pointer-events: all;"/></g><g class="node" transform="translate(276.3333333333333,292.2155979575897)"><title>Aircraft</title><line x1="0" x2="0" y1="-5" y2="67.7844020424103" style="display: inline; stroke: rgb(0, 0, 0);"/><rect class="node-body" width="1" height="67.7844020424103" style="fill: none;"/><text class="node-value" dy=".35em" text-anchor="middle" transform="translate(0.5,33.89220102120515) rotate(-90)" style="display: none;"/><text class="node-title" dy=".35em" text-anchor="start" transform="translate(-4,-10)" style="display: inline;">Aircraft</text><rect class="node-click-target" x="-5" y="-5" width="10" height="72.7844020424103" style="fill: none; visibility: hidden; pointer-events: all;"/></g><g class="node" transform="translate(0,241.98570582455469)"><title>W = 100 lbf</title><line x1="0" x2="0" y1="0" y2="16.55588888561394" style="display: inline; stroke: rgb(0, 0, 0);"/><rect class="node-body" width="1" height="16.55588888561394" style="fill: none;"/><text class="node-value" dy=".35em" text-anchor="middle" transform="translate(0.5,8.27794444280697) rotate(-90)" style="display: none;"/><text class="node-title" dy=".35em" text-anchor="end" transform="translate(-4,8.27794444280697)" style="display: inline;">W = 100 lbf</text><rect class="node-click-target" x="-5" y="-5" width="10" height="21.55588888561394" style="fill: none; visibility: hidden; pointer-events: all;"/></g><g class="node" transform="translate(138.16666666666666,275.7689768814511)"><title>Fuselage</title><line x1="0" x2="0" y1="-5" y2="16.55588888561391" style="display: inline; stroke: rgb(0, 0, 0);"/><rect class="node-body" width="1" height="16.55588888561391" style="fill: none;"/><text class="node-value" dy=".35em" text-anchor="middle" transform="translate(0.5,8.277944442806955) rotate(-90)" style="display: none;"/><text class="node-title" dy=".35em" text-anchor="start" transform="translate(-4,-10)" style="display: inline;">Fuselage</text><rect class="node-click-target" x="-5" y="-5" width="10" height="21.55588888561391" style="fill: none; visibility: hidden; pointer-events: all;"/></g><g class="node" transform="translate(0,277.07789234623067)"><title>A = 27 </title><line x1="0" x2="0" y1="0" y2="11.547398562419232" style="display: inline; stroke: rgb(0, 0, 0);"/><rect class="node-body" width="1" height="11.547398562419232" style="fill: none;"/><text class="node-value" dy=".35em" text-anchor="middle" transform="translate(0.5,5.773699281209616) rotate(-90)" style="display: none;"/><text class="node-title" dy=".35em" text-anchor="end" transform="translate(-4,5.773699281209616)" style="display: inline;">A = 27 </text><rect class="node-click-target" x="-5" y="-5" width="10" height="16.547398562419232" style="fill: none; visibility: hidden; pointer-events: all;"/></g><g class="node" transform="translate(138.16666666666666,332.6867852544169)"><title>Wing</title><line x1="0" x2="0" y1="-5" y2="27.313214745583082" style="display: inline; stroke: rgb(0, 0, 0);"/><rect class="node-body" width="1" height="27.313214745583082" style="fill: none;"/><text class="node-value" dy=".35em" text-anchor="middle" transform="translate(0.5,13.656607372791541) rotate(-90)" style="display: none;"/><text class="node-title" dy=".35em" text-anchor="start" transform="translate(-4,-10)" style="display: inline;">Wing</text><rect class="node-click-target" x="-5" y="-5" width="10" height="32.31321474558308" style="fill: none; visibility: hidden; pointer-events: all;"/></g><g class="node" transform="translate(0,307.161588544712)"><title>rho = 1 lbf/ft²</title><line x1="0" x2="0" y1="0" y2="7.359409456164144" style="display: inline; stroke: rgb(0, 0, 0);"/><rect class="node-body" width="1" height="7.359409456164144" style="fill: none;"/><text class="node-value" dy=".35em" text-anchor="middle" transform="translate(0.5,3.679704728082072) rotate(-90)" style="display: none;"/><text class="node-title" dy=".35em" text-anchor="end" transform="translate(-4,3.679704728082072)" style="display: inline;">rho = 1 lbf/ft²</text><rect class="node-click-target" x="-5" y="-5" width="10" height="12.359409456164144" style="fill: none; visibility: hidden; pointer-events: all;"/></g><g class="node" transform="translate(0,333.05729563693825)"><title>c = (S/A)^0.5</title><line x1="0" x2="0" y1="0" y2="1.0469972708355613" style="display: inline; stroke: rgb(0, 0, 0);"/><rect class="node-body" width="1" height="1.0469972708355613" style="fill: none;"/><text class="node-value" dy=".35em" text-anchor="middle" transform="translate(0.5,0.5234986354177806) rotate(-90)" style="display: none;"/><text class="node-title" dy=".35em" text-anchor="end" transform="translate(-4,0.5234986354177806)" style="display: inline;">c = (S/A)^0.5</text><rect class="node-click-target" x="-5" y="-5" width="10" height="6.046997270835561" style="fill: none; visibility: hidden; pointer-events: all;"/></g><g class="node" transform="translate(0,352.64059054383586)"><title>W ≥ S·rho</title><line x1="0" x2="0" y1="0" y2="7.359409456164144" style="display: inline; stroke: rgb(0, 0, 0);"/><rect class="node-body" width="1" height="7.359409456164144" style="fill: none;"/><text class="node-value" dy=".35em" text-anchor="middle" transform="translate(0.5,3.679704728082072) rotate(-90)" style="display: none;"/><text class="node-title" dy=".35em" text-anchor="end" transform="translate(-4,3.679704728082072)" style="display: inline;">W ≥ S·rho</text><rect class="node-click-target" x="-5" y="-5" width="10" height="12.359409456164144" style="fill: none; visibility: hidden; pointer-events: all;"/></g><g class="node" transform="translate(690.8333333333333,214.90971441004854)"><title>Wburn ≥ 0.2·D</title><line x1="0" x2="0" y1="0" y2="17.305883547541185" style="display: inline; stroke: rgb(0, 0, 0);"/><rect class="node-body" width="1" height="17.305883547541185" style="fill: none;"/><text class="node-value" dy=".35em" text-anchor="middle" transform="translate(0.5,8.652941773770593) rotate(-90)" style="display: none;"/><text class="node-title" dy=".35em" text-anchor="end" transform="translate(-4,8.652941773770593)" style="display: inline;">Wburn ≥ 0.2·D</text><rect class="node-click-target" x="-5" y="-5" width="10" height="22.305883547541185" style="fill: none; visibility: hidden; pointer-events: all;"/></g></g><g class="slice-titles"/></g></svg>